<svg xmlns="http://www.w3.org/2000/svg" viewBox="0 0 20 20" width="96" height="96" shape-rendering="crispEdges">
  <title>Assistant</title>
  <rect fill="#4AA8A0" height="2" width="8" x="6" y="0"/>
  <rect fill="#C0392B" height="3" width="10" x="5" y="2"/>
  <rect fill="#8F2A20" height="1" width="10" x="5" y="4"/>
  <rect fill="#C0392B" height="1" width="3" x="14" y="4"/>
  <rect fill="#5A3A22" height="2" width="2" x="5" y="5"/>
  <rect fill="#5A3A22" height="2" width="2" x="13" y="5"/>
  <rect fill="#F0C088" height="8" width="8" x="6" y="5"/>
  <rect fill="#D9A566" height="1" width="8" x="6" y="12"/>
  <rect fill="#4AA8A0" height="5" width="3" x="3" y="6"/>
  <rect fill="#357E78" height="5" width="1" x="3" y="6"/>
  <rect fill="#4AA8A0" height="5" width="3" x="14" y="6"/>
  <rect fill="#357E78" height="5" width="1" x="16" y="6"/>
  <rect fill="#3FB6AE" height="5" width="5" x="5" y="6"/>
  <rect fill="#3FB6AE" height="5" width="5" x="10" y="6"/>
  <rect fill="#BFECE8" height="3" width="3" x="6" y="7"/>
  <rect fill="#BFECE8" height="3" width="3" x="11" y="7"/>
  <rect fill="#3FB6AE" height="1" width="2" x="9" y="8"/>
  <rect fill="#2B2B2B" height="1" width="1" x="7" y="8"/>
  <rect fill="#2B2B2B" height="1" width="1" x="12" y="8"/>
  <rect fill="#2B2B2B" height="1" width="2" x="9" y="11"/>
  <rect fill="#6E3FB0" height="1" width="8" x="6" y="13"/>
  <rect fill="#8E5BD0" height="6" width="14" x="3" y="14"/>
  <rect fill="#6E3FB0" height="6" width="4" x="13" y="14"/>
  <rect fill="#6E3FB0" height="6" width="1" x="9" y="14"/>
  <rect fill="#F0C088" height="2" width="1" x="7" y="18"/>
  <rect fill="#F0C088" height="2" width="1" x="12" y="18"/>
  <rect fill="#E8B23F" height="2" width="4" x="8" y="18"/>
</svg>
