<svg xmlns="http://www.w3.org/2000/svg" viewBox="0 0 20 20" width="96" height="96" shape-rendering="crispEdges">
  <title>Boss</title>
  <rect fill="#F2C94C" height="2" width="2" x="5" y="1"/>
  <rect fill="#F2C94C" height="2" width="2" x="9" y="1"/>
  <rect fill="#F2C94C" height="2" width="2" x="13" y="1"/>
  <rect fill="#F2C94C" height="2" width="10" x="5" y="3"/>
  <rect fill="#D6A93F" height="1" width="10" x="5" y="4"/>
  <rect fill="#C0392B" height="1" width="2" x="9" y="3"/>
  <rect fill="#6B4A2A" height="3" width="2" x="5" y="5"/>
  <rect fill="#6B4A2A" height="3" width="2" x="13" y="5"/>
  <rect fill="#F0C088" height="6" width="8" x="6" y="5"/>
  <rect fill="#2B2B2B" height="1" width="1" x="8" y="7"/>
  <rect fill="#2B2B2B" height="1" width="1" x="11" y="7"/>
  <rect fill="#6B4A2A" height="3" width="8" x="6" y="9"/>
  <rect fill="#F0C088" height="1" width="4" x="8" y="9"/>
  <rect fill="#2B2B2B" height="1" width="2" x="9" y="10"/>
  <rect fill="#FFFFFF" height="1" width="10" x="5" y="12"/>
  <rect fill="#FFFFFF" height="1" width="12" x="4" y="13"/>
  <rect fill="#C0392B" height="6" width="12" x="4" y="14"/>
  <rect fill="#8F2A20" height="6" width="3" x="13" y="14"/>
  <rect fill="#F2C94C" height="6" width="2" x="9" y="14"/>
  <rect fill="#4FB6EA" height="1" width="2" x="9" y="13"/>
</svg>
